# AST/ASF file generated using VICON BodyLanguage
# -----------------------------------------------
:version 1.10
:name VICON
:units
  mass 1.0
  length 0.45
  angle deg
:documentation
   .ast/.asf automatically generated from VICON data using
   VICON BodyBuilder and BodyLanguage model FoxedUp or BRILLIANT.MOD
:root
   order TX TY TZ RX RY RZ
   axis XYZ
   position 0 0 0  
   orientation 0 0 0 
:bonedata
  begin
     id 1 
     name lhipjoint
     direction 0.54267 -0.795011 0.271047 
     length 2.39899 
     axis 0 0 0  XYZ
  end
  begin
     id 2 
     name lfemur
     direction 0.34202 -0.939693 0  
     length 7.49701  
     axis 0 0 20  XYZ
    dof rx ry rz
    limits (-160.0 20.0)
           (-70.0 70.0)
           (-60.0 70.0)
  end
  begin
     id 3 
     name ltibia
     direction 0.34202 -0.939693 0   
     length 8.1668   
     axis 0 0 20   XYZ
    dof rx
    limits (-10.0 170.0)
  end
  begin
     id 4 
     name lfoot
     direction 0.0736283 -0.202292 0.976554   
     length 2.13544   
     axis -90 7.62852e-016 20   XYZ
    dof rx rz
    limits (-45.0 90.0)
           (-70.0 20.0)
  end
  begin
     id 5 
     name ltoes
     direction 1.53557e-011 -4.22024e-011 1   
     length 1.07411   
     axis -90 7.62852e-016 20   XYZ
    dof rx
    limits (-90.0 20.0)
  end
  begin
     id 6 
     name rhipjoint
     direction -0.538061 -0.797813 0.272002   
     length 2.39057  
     axis 0 0 0  XYZ 
  end
  begin
     id 7 
     name rfemur
     direction -0.34202 -0.939693 0   
     length 7.50152   
     axis 0 0 -20   XYZ
    dof rx ry rz
    limits (-160.0 20.0)
           (-70.0 70.0)
           (-70.0 60.0)
  end
  begin
     id 8 
     name rtibia
     direction -0.34202 -0.939693 0   
     length 8.05793   
     axis 0 0 -20   XYZ
    dof rx
    limits (-10.0 170.0)
 end
 begin
     id 9 
     name rfoot
     direction -0.0765195 -0.210236 0.974652   
     length 2.28698  
     axis -90 -7.62852e-016 -20   XYZ
    dof rx rz
    limits (-45.0 90.0)
           (-20.0 70.0)
  end
  begin
     id 10 
     name rtoes
     direction -1.53542e-011 -4.21847e-011 1   
     length 1.14762   
     axis -90 -7.62852e-016 -20   XYZ
    dof rx
    limits (-90.0 20.0)
  end
  begin
     id 11 
     name lowerback
     direction -0.0217239 0.996592 -0.0795765   
     length 2.08176   
     axis 0 0 0   XYZ
    dof rx ry rz
    limits (-20.0 45.0)
           (-30.0 30.0)
           (-30.0 30.0)
  end
  begin
     id 12 
     name upperback
     direction -0.00563773 0.999651 -0.0258155   
     length 2.08898   
     axis 0 0 0   XYZ
    dof rx ry rz
    limits (-20.0 45.0)
           (-30.0 30.0)
           (-30.0 30.0)
  end
  begin
     id 13 
     name thorax
     direction 0.0032706 0.999923 0.0119599   
     length 2.0968   
     axis 0 0 0   XYZ
    dof rx ry rz
    limits (-20.0 45.0)
           (-30.0 30.0)
           (-30.0 30.0)
  end
  begin
     id 14 
     name lowerneck
     direction -0.0285886 0.99568 0.0883427   
     length 1.81272   
     axis 0 0 0   XYZ
    dof rx ry rz
    limits (-20.0 45.0)
           (-30.0 30.0)
           (-30.0 30.0)
  end
  begin
     id 15 
     name upperneck
     direction 0.0807535 0.97985 -0.18268   
     length 1.82518   
     axis 0 0 0   XYZ
    dof rx ry rz
    limits (-20.0 45.0)
           (-30.0 30.0)
           (-30.0 30.0)
  end
  begin
     id 16
     name head
     direction 0.0236605 0.997053 -0.0729767  
     length 1.84443  
     axis 0 0 0   XYZ
    dof rx ry rz
    limits (-20.0 45.0)
           (-30.0 30.0)
           (-30.0 30.0)
  end
  begin
     id 17 
     name lclavicle
     direction 0.918986 0.39378 -0.0200683  
     length 3.27822  
     axis 0 0 0   XYZ
    dof ry rz
    limits (-20.0 10.0)
           (0.0 20.0)
  end
  begin
     id 18 
     name lhumerus
     direction 1 -4.4897e-011 2.09544e-027   
     length 5.5568   
     axis 180 -30 -90   XYZ
    dof rx ry rz
    limits (-60.0 90.0)
           (-90.0 90.0)
           (-90.0 90.0)
  end
  begin
     id 19
     name lradius
     direction 1 -4.48957e-011 -1.27696e-026   
     length 3.63979   
     axis 180 -30 -90   XYZ
    dof rx
    limits (-10.0 170.0)
  end
  begin
     id 20
     name lwrist
     direction 1 -4.49001e-011 -1.49001e-026   
     length 1.8199   
     axis 9.0955e-015 90 90   XYZ
    dof ry
    limits (-180.0 0.0)
 end
  begin
     id 21 
     name lhand
     direction 1 -4.48709e-011 -2.9758e-026   
     length 0.569419   
     axis 1.90115e-014 90 90   XYZ
    dof rx rz
    limits (-90.0 90.0)
           (-45.0 45.0)
  end
  begin
     id 22 
     name lfingers
     direction 1 -4.49175e-011 -5.96505e-026   
     length 0.45908   
     axis 3.80223e-014 90 90   XYZ
    dof rx
    limits (0.0 90.0)
  end
  begin
     id 23
     name lthumb
     direction 0.707107 -6.34864e-011 0.707107   
     length 0.65915   
     axis -90 45 -3.84942e-014   XYZ
    dof rx rz
    limits (-45.0 45.0)
           (-45.0 45.0)
  end
  begin
     id 24 
     name rclavicle
     direction -0.911913 0.396426 -0.106115   
     length 3.46301  
     axis 0 0 0   XYZ 
    dof ry rz
    limits (-10.0 20.0)
           (-20.0 0.0)
  end
  begin
     id 25 
     name rhumerus
     direction -1 -4.48965e-011 7.78516e-028  
     length 5.34339   
     axis 180 30 90   XYZ
    dof rx ry rz
    limits (-90.0 60.0)
           (-90.0 90.0)
           (-90.0 90.0)
  end
  begin
     id 26 
     name rradius
     direction -1 -4.48948e-011 -5.79823e-027   
     length 3.65101   
     axis 180 30 90   XYZ
    dof rx
    limits (-10.0 170.0)
  end
  begin
     id 27 
     name rwrist
     direction -1 -4.48995e-011 -1.48996e-026   
     length 1.8255   
     axis 9.0955e-015 -90 -90   XYZ
    dof ry
    limits (-180.0 0.0)
  end
  begin
     id 28
     name rhand
     direction -1 -4.48957e-011 -2.97937e-026   
     length 0.694249   
     axis 1.90115e-014 -90 -90   XYZ
    dof rx rz
    limits (-90.0 90.0)
           (-45.0 45.0)
  end
  begin
     id 29
     name rfingers
     direction -1 -4.4898e-011 -5.95943e-026   
     length 0.559721   
     axis 3.80223e-014 -90 -90   XYZ
    dof rx
    limits (0.0 90.0)
  end
  begin
     id 30
     name rthumb
     direction -0.707107 -6.34969e-011 0.707107   
     length 0.803651   
     axis -90 -45 3.84942e-014   XYZ
    dof rx rz
    limits (-45.0 45.0)
           (-45.0 45.0)
  end
:hierarchy
  begin
    root lhipjoint rhipjoint lowerback
    lhipjoint lfemur
    lfemur ltibia
    ltibia lfoot
    lfoot ltoes
    rhipjoint rfemur
    rfemur rtibia
    rtibia rfoot
    rfoot rtoes
    lowerback upperback
    upperback thorax
    thorax lowerneck lclavicle rclavicle
    lowerneck upperneck
    upperneck head
    lclavicle lhumerus
    lhumerus lradius
    lradius lwrist
    lwrist lhand lthumb
    lhand lfingers
    rclavicle rhumerus
    rhumerus rradius
    rradius rwrist
    rwrist rhand rthumb
    rhand rfingers
  end

#!OML:ASF H:\Terrain\Walking\May29\JustinRory\rory.ASF
:FULLY-SPECIFIED
:DEGREES
97
root 6.60224 18.7596 7.93509 -173.427 2.03795 -179.821
lowerback -1.57345 1.03167 -1.28882
upperback -0.0350131 1.40248 -0.135276
thorax 0.81823 0.697304 0.614822
lowerneck -11.6737 -3.11772 -4.3609
upperneck 15.0722 -4.28016 3.41678
head 6.68179 -2.12828 1.40559
rclavicle 1.45982e-014 2.28602e-015
rhumerus 1.95189 -4.79674 -37.7569
rradius 110.719
rwrist 5.72509
rhand -20.9533 43.5218
rfingers 7.12502
rthumb 5.41945 13.6111
lclavicle 1.45982e-014 2.28602e-015
lhumerus 7.60783 -1.63642 46.2605
lradius 112.219
lwrist -11.3197
lhand -21.8914 18.5885
lfingers 7.12502
lthumb 4.51362 48.5204
rfemur -6.52606 11.8532 16.7634
rtibia 16.8508
rfoot -10.4161 -12.1548
rtoes 8.03217
lfemur -3.72378 -3.62182 -17.1884
ltibia 15.3761
lfoot -16.0266 8.9456
ltoes -9.19199
98
root 6.60582 18.746 7.93694 -173.509 1.94406 -179.767
lowerback -1.45239 1.06124 -1.30215
upperback -0.079899 1.43863 -0.0344194
thorax 0.700808 0.715974 0.723086
lowerneck -11.3954 -3.14674 -4.49884
upperneck 14.9871 -4.31429 3.44729
head 6.6114 -2.1552 1.43874
rclavicle -1.43125e-014 1.19271e-015
rhumerus 1.72464 -4.68163 -37.408
rradius 110.774
rwrist 5.78194
rhand -22.0331 44.2038
rfingers 7.12502
rthumb 4.37682 14.269
lclavicle -1.43125e-014 1.19271e-015
lhumerus 7.72648 -1.6982 46.4957
lradius 112.155
lwrist -11.6358
lhand -23.7578 18.08
lfingers 7.12502
lthumb 2.71124 48.0425
rfemur -6.51194 11.9273 16.8746
rtibia 17.0634
rfoot -10.3984 -12.334
rtoes 7.15565
lfemur -3.83811 -3.54014 -17.1204
ltibia 15.7464
lfoot -16.1467 8.89039
ltoes -9.45933
99
root 6.61114 18.7354 7.94087 -173.504 1.93352 -179.82
lowerback -1.33595 1.09093 -1.50581
upperback -0.109614 1.47847 0.0562093
thorax 0.596745 0.736056 0.927589
lowerneck -11.4539 -3.19808 -4.67048
upperneck 15.1048 -4.36582 3.48762
head 6.66621 -2.18732 1.47339
rclavicle 1.01318e-014 -3.08116e-015
rhumerus 1.80696 -4.6956 -37.2335
rradius 110.681
rwrist 5.97042
rhand -23.5877 44.876
rfingers 7.12502
rthumb 2.87554 14.9156
lclavicle 1.01318e-014 -3.08116e-015
lhumerus 7.89726 -1.65685 46.7169
lradius 112.099
lwrist -12.0565
lhand -25.2786 17.9305
lfingers 7.12502
lthumb 1.24248 47.9066
rfemur -6.70126 12.0124 16.8394
rtibia 17.3794
rfoot -10.3473 -12.5068
rtoes 6.03277
lfemur -4.07239 -3.33598 -17.1588
ltibia 16.1505
lfoot -16.2395 8.741
ltoes -10.6765
100
root 6.61684 18.7196 7.94699 -173.473 1.86742 -179.778
lowerback -1.27346 1.08839 -1.51786
upperback -0.125704 1.47347 0.122432
thorax 0.543354 0.733918 1.00043
lowerneck -11.4182 -3.22623 -4.70303
upperneck 15.1148 -4.39006 3.41903
head 6.66352 -2.20734 1.4548
rclavicle -2.40778e-014 -2.33572e-015
rhumerus 2.02794 -4.77651 -37.2418
rradius 110.518
rwrist 6.19344
rhand -24.8987 45.6823
rfingers 7.12502
rthumb 1.60944 15.7087
lclavicle -2.40778e-014 -2.33572e-015
lhumerus 8.07726 -1.47031 46.9081
lradius 112.102
lwrist -12.3083
lhand -26.2287 17.9066
lfingers 7.12502
lthumb 0.324876 47.8861
rfemur -7.04059 11.7947 16.9121
rtibia 17.9098
rfoot -10.4656 -12.5323
rtoes 4.53837
lfemur -4.32191 -3.38547 -17.0643
ltibia 16.5101
lfoot -16.3619 8.57046
ltoes -11.189
101
root 6.62053 18.704 7.95147 -173.5 1.79162 -179.749
lowerback -1.20992 1.08081 -1.46275
upperback -0.0993175 1.46127 0.142107
thorax 0.535967 0.727677 0.988493
lowerneck -11.4284 -3.22139 -4.67849
upperneck 15.1541 -4.37203 3.31433
head 6.67429 -2.20624 1.41855
rclavicle 2.21241e-014 -3.13086e-015
rhumerus 2.21186 -4.89788 -37.2796
rradius 110.363
rwrist 6.18426
rhand -26.1291 46.7419
rfingers 7.12502
rthumb 0.421104 16.7625
lclavicle 2.21241e-014 -3.13086e-015
lhumerus 8.31232 -1.1975 47.1276
lradius 112.193
lwrist -12.11
lhand -26.9081 18.2425
lfingers 7.12502
lthumb -0.331305 48.222
rfemur -7.34074 11.4831 16.9595
rtibia 18.4955
rfoot -10.701 -12.4202
rtoes 4.15379
lfemur -4.57083 -3.41844 -17.0075
ltibia 16.9862
lfoot -16.5989 8.46362
ltoes -12.8435
102
root 6.6234 18.6911 7.95356 -173.599 1.74655 -179.845
lowerback -1.08777 1.06884 -1.58038
upperback -0.0540318 1.4447 0.148314
thorax 0.511284 0.718885 1.05842
lowerneck -11.5144 -3.20581 -4.6345
upperneck 15.2951 -4.33789 3.16377
head 6.72874 -2.20072 1.36426
rclavicle -4.11546e-015 1.49089e-016
rhumerus 2.44132 -4.99622 -37.2977
rradius 110.152
rwrist 5.86234
rhand -27.7596 48.0107
rfingers 7.12502
rthumb -1.15376 18.0341
lclavicle -4.11546e-015 1.49089e-016
lhumerus 8.48512 -0.954727 47.3012
lradius 112.272
lwrist -11.5426
lhand -27.5003 18.8998
lfingers 7.12502
lthumb -0.903266 48.8777
rfemur -7.53655 11.1983 16.8623
rtibia 19.0416
rfoot -10.9772 -12.1312
rtoes 4.96124
lfemur -4.85227 -3.26653 -17.0917
ltibia 17.6862
lfoot -16.8879 8.25973
ltoes -13.8467
103
root 6.62654 18.6709 7.95749 -173.633 1.68321 -179.854
lowerback -1.02724 1.0893 -1.61649
upperback -0.0501266 1.4712 0.159509
thorax 0.479374 0.732253 1.08918
lowerneck -11.4552 -3.2263 -4.48373
upperneck 15.2987 -4.37415 3.01974
head 6.71444 -2.22307 1.2907
rclavicle -3.13086e-015 -2.28602e-015
rhumerus 2.45244 -5.10121 -37.2719
rradius 110.083
rwrist 5.43927
rhand -29.3152 48.9337
rfingers 7.12502
rthumb -2.65614 18.9705
lclavicle -3.13086e-015 -2.28602e-015
lhumerus 8.69951 -0.903956 47.4153
lradius 112.172
lwrist -10.9332
lhand -28.5565 19.1023
lfingers 7.12502
lthumb -1.92334 49.0734
rfemur -7.79861 11.051 16.8606
rtibia 19.6317
rfoot -11.3252 -11.9487
rtoes 5.33122
lfemur -5.29451 -3.17142 -17.0604
ltibia 18.5623
lfoot -17.2613 7.98415
ltoes -12.7892
104
root 6.62914 18.6589 7.96378 -173.522 1.70548 -179.668
lowerback -0.890595 1.10862 -1.38351
upperback -0.136676 1.4918 0.1678
thorax 0.319319 0.744801 0.963344
lowerneck -11.6525 -3.22379 -4.37374
upperneck 15.4056 -4.3845 3.01915
head 6.78092 -2.21952 1.26811
rclavicle 3.40729e-015 1.93815e-015
rhumerus 2.41085 -5.19186 -37.3781
rradius 110.163
rwrist 5.04976
rhand -30.2672 49.5626
rfingers 7.12502
rthumb -3.57551 19.6128
lclavicle 3.40729e-015 1.93815e-015
lhumerus 8.90205 -0.796274 47.35
lradius 111.947
lwrist -10.0844
lhand -30.7725 18.6705
lfingers 7.12502
lthumb -4.06347 48.6115
rfemur -8.26409 11.0207 17.0331
rtibia 20.2814
rfoot -11.5954 -11.8225
rtoes 5.23837
lfemur -5.98429 -2.9899 -16.8081
ltibia 19.584
lfoot -17.6018 7.71882
ltoes -11.5951
105
root 6.63286 18.646 7.97505 -173.424 1.72316 -179.386
lowerback -0.557192 1.0246 -0.931448
upperback -0.2417 1.37193 0.166133
thorax 0.0389652 0.687252 0.699353
lowerneck -12.0714 -3.16534 -4.45267
upperneck 15.638 -4.29893 3.14787
head 6.92999 -2.16719 1.32368
rclavicle 1.84186e-014 -1.2424e-015
rhumerus 2.79447 -5.22093 -37.6956
rradius 110.108
rwrist 4.67576
rhand -30.7977 49.9822
rfingers 7.12502
rthumb -4.08781 20.0417
lclavicle 1.84186e-014 -1.2424e-015
lhumerus 9.0564 -0.40961 47.0446
lradius 111.707
lwrist -9.14939
lhand -33.576 18.34
lfingers 7.12502
lthumb -6.77024 48.2117
rfemur -8.77551 10.8906 17.3206
rtibia 20.9665
rfoot -11.6963 -11.7052
rtoes 3.48644
lfemur -6.72523 -2.68783 -16.437
ltibia 20.6735
lfoot -17.884 7.34772
ltoes -11.1881
106
root 6.63744 18.6154 7.98628 -173.525 1.698 -179.414
lowerback -0.351095 0.989195 -0.917121
upperback -0.234612 1.32236 0.166363
thorax -0.0679844 0.662811 0.687406
lowerneck -11.9604 -3.15629 -4.54462
upperneck 15.5619 -4.27058 3.14612
head 6.88702 -2.15994 1.34287
rclavicle -1.39522e-014 3.97569e-016
rhumerus 3.05938 -5.33102 -37.7689
rradius 110.092
rwrist 4.32643
rhand -30.8252 50.2749
rfingers 7.12502
rthumb -4.11436 20.3349
lclavicle -1.39522e-014 3.97569e-016
lhumerus 9.33024 -0.128699 46.9865
lradius 111.475
lwrist -8.61814
lhand -36.0379 18.3612
lfingers 7.12502
lthumb -9.1464 48.1428
rfemur -9.10787 10.6699 17.2938
rtibia 21.7298
rfoot -11.945 -11.5383
rtoes 2.63829
lfemur -7.21733 -2.62543 -16.434
ltibia 21.7278
lfoot -18.2756 7.01683
ltoes -11.4678
107
root 6.63784 18.5916 7.98945 -173.757 1.71649 -179.676
lowerback -0.396724 1.07327 -1.55606
upperback -0.0635125 1.43737 0.392378
thorax 0.108938 0.718401 1.27966
lowerneck -11.6876 -3.23271 -4.73755
upperneck 15.4118 -4.3023 2.89115
head 6.79159 -2.20998 1.29376
rclavicle -3.82971e-015 -1.04362e-015
rhumerus 3.16778 -5.51418 -37.2513
rradius 110.215
rwrist 4.23481
rhand -30.5579 50.7708
rfingers 7.12502
rthumb -3.8562 20.826
lclavicle -3.82971e-015 -1.04362e-015
lhumerus 9.7051 0.171205 47.6185
lradius 111.293
lwrist -8.56899
lhand -37.5471 18.1312
lfingers 7.12502
lthumb -10.6024 47.8438
rfemur -9.32697 10.2498 16.9985
rtibia 22.6321
rfoot -12.4799 -10.9979
rtoes 4.48008
lfemur -7.52441 -2.71137 -16.7166
ltibia 22.7862
lfoot -18.8128 6.80695
ltoes -11.3217
108
root 6.63576 18.5824 7.99129 -173.878 1.69411 -179.598
lowerback 0.64153 1.05114 -0.00229219
upperback -0.66798 1.4017 -0.68462
thorax -1.02592 0.700716 -0.720533
lowerneck -11.1289 -3.08749 -3.77187
upperneck 15.7173 -4.45519 3.38271
head 6.78616 -2.21496 1.28435
rclavicle -1.41634e-014 7.7526e-015
rhumerus 1.92469 -5.27195 -38.7246
rradius 110.477
rwrist 4.97777
rhand -30.636 51.2546
rfingers 7.12502
rthumb -3.93165 21.3111
lclavicle -1.41634e-014 7.7526e-015
lhumerus 9.84164 -0.443121 46.0911
lradius 111.322
lwrist -8.72645
lhand -38.4272 17.2594
lfingers 7.12502
lthumb -11.4513 46.9267
rfemur -9.73761 9.86524 17.0518
rtibia 23.6678
rfoot -13.2643 -10.3524
rtoes 7.41377
lfemur -8.00261 -2.48353 -16.5787
ltibia 23.9255
lfoot -19.3518 6.20637
ltoes -9.01002
109
root 6.64048 18.5569 8.00458 -173.887 1.66633 -179.444
lowerback 0.980141 1.02872 0.567776
upperback -0.796975 1.37834 -0.984857
thorax -1.32764 0.682711 -1.35563
lowerneck -10.9451 -3.03373 -3.34353
upperneck 15.6079 -4.47683 3.44466
head 6.71137 -2.20032 1.23507
rclavicle -7.90169e-015 2.38542e-015
rhumerus 1.71397 -5.34717 -39.1839
rradius 110.557
rwrist 5.81862
rhand -30.947 51.2006
rfingers 7.12502
rthumb -4.23195 21.2629
lclavicle -7.90169e-015 2.38542e-015
lhumerus 10.0463 -0.31416 45.6811
lradius 111.425
lwrist -9.4518
lhand -39.0405 16.2249
lfingers 7.12502
lthumb -12.0427 45.8584
rfemur -10.3678 9.68467 17.201
rtibia 24.7709
rfoot -13.9591 -10.032
rtoes 8.33274
lfemur -8.70302 -1.98048 -16.3261
ltibia 25.1631
lfoot -19.6752 5.42989
ltoes -7.24355
110
root 6.64943 18.5169 8.02647 -173.927 1.64347 -179.383
lowerback 1.0369 0.954538 0.240063
upperback -0.595819 1.27364 -0.69721
thorax -1.16976 0.633801 -0.873928
lowerneck -11.4683 -2.98215 -3.59315
upperneck 15.8293 -4.31612 3.31115
head 6.87066 -2.13667 1.24017
rclavicle -3.32964e-015 -3.18055e-015
rhumerus 2.50058 -5.57578 -39.0495
rradius 110.479
rwrist 6.58013
rhand -30.7268 50.9148
rfingers 7.12502
rthumb -4.01933 20.973
lclavicle -3.32964e-015 -3.18055e-015
lhumerus 10.1808 0.474744 45.9142
lradius 111.436
lwrist -10.2015
lhand -39.2925 15.9343
lfingers 7.12502
lthumb -12.2857 45.5534
rfemur -11.0173 9.51395 17.285
rtibia 25.955
rfoot -14.3643 -9.97952
rtoes 7.07173
lfemur -9.43135 -1.57732 -16.1858
ltibia 26.5114
lfoot -19.9545 4.91524
ltoes -7.52992
